<svg
  xmlns="http://www.w3.org/2000/svg"
  viewBox="0 0 820 240"
  role="img"
  aria-label="Illumios logo with lightbulb mark"
>
  <defs>
    <linearGradient id="illumiosBulbGradient" x1="40" y1="180" x2="760" y2="40" gradientUnits="userSpaceOnUse">
      <stop offset="0%" stop-color="#5A1E8A"/>
      <stop offset="50%" stop-color="#356CC9"/>
      <stop offset="100%" stop-color="#28C3D7"/>
    </linearGradient>
    <style>
      .mark {
        fill: none;
        stroke: url(#illumiosBulbGradient);
        stroke-linecap: round;
        stroke-linejoin: round;
        stroke-width: 22;
      }
      .dot {
        fill: url(#illumiosBulbGradient);
      }
    </style>
  </defs>
  <circle class="dot" cx="68" cy="78" r="14"/>
  <path class="mark" d="M68 112v68"/>
  <path class="mark" d="M108 58v122"/>
  <path class="mark" d="M148 58v122"/>
  <path class="mark" d="M188 112v40c0 16 12 28 28 28s28-12 28-28v-40"/>
  <path class="mark" d="M256 112v68"/>
  <path class="mark" d="M256 126c8-13 20-21 35-21 18 0 31 10 37 26 8-16 22-26 39-26 24 0 41 18 41 43v32"/>
  <circle class="dot" cx="468" cy="78" r="14"/>
  <path class="mark" d="M468 112v68"/>
  <path class="mark" d="M562 114c0-28-22-50-50-50s-50 22-50 50c0 20 11 36 25 45 8 5 13 14 13 24v9"/>
  <path class="mark" d="M562 114c0 20-11 36-25 45-8 5-13 14-13 24v9"/>
  <path class="mark" d="M512 114v30"/>
  <circle class="dot" cx="512" cy="114" r="12"/>
  <path class="mark" d="M492 193h40"/>
  <path class="mark" d="M496 214h32"/>
  <path class="mark" d="M502 232h20"/>
  <path class="mark" d="M626 116c8-7 19-11 32-11 22 0 35 11 35 26 0 16-12 23-35 23h-10c-23 0-35 8-35 22 0 16 14 28 38 28 12 0 23-3 33-9"/>
</svg>
